<?xml version="1.0" encoding="UTF-8"?><svg xmlns="http://www.w3.org/2000/svg" id="Calque_1" version="1.1" viewBox="0 0 300 100"><defs><style> .st0 { fill: #fff; } .st1 { fill: #ef6902; } </style></defs><path class="st1" d="M94.8,29.3h109.3c25.4,1.6,26.9,37.8,1.7,41.5-36.6.4-73.3,0-109.9.2-26.6-1.3-27.1-39.2-1.1-41.7ZM116.9,58.3v-5.8h9.5v5.6c0,.2.6.8.8.9,1.1.6,2.2,0,2.5-1.1.5-1.8.3-9.2-.1-11.1-1.8-8.6-14.1-8.3-15.9.1v11.3c.5.9,1.5,1.3,2.4.8s.8-.7.8-.8ZM162.1,52.5v5.6c0,.2.6.8.8.9,1.6.8,2.5-.5,2.7-2,.2-2.2.1-5.7,0-7.9-.7-11.7-15.7-11.4-16.4-.2-.1,1.9-.3,7.4.2,9s1.5,1.6,2.5,1.1.8-.8.8-.9v-5.6h9.5ZM177.4,40.5c-2.8,0-5.6,1.8-6.8,4.2s-1.2,9.5-.9,12.4,2.2,3,3.5,1.1l.2-10.9c.6-3.1,4.3-4.6,6.8-2.5s1.1,9.9,1.6,13.2c.6,1.7,3.2,1.6,3.4-.3s.2-7.6,0-10c-.3-4.1-3.6-7.4-7.8-7.3ZM202,51.7v3.3c-3,2.2-7.8.9-9.1-2.6-2-5.5,3-10.5,8.4-8.1s2.6,2.1,3.6.5-1.8-3.6-3.4-4c-7.1-1.9-13.9,3.6-12.4,11,1.5,7.6,10.9,9.6,16.3,4.7v-7.8l-.3-.3h-6.4c-1.7,0-1.7,3.1,0,3.1h3.2ZM104.6,41h-9.7l-.3.3v17.4l.3.3h9.3c.5,0,2.1-.5,2.6-.7,3.5-1.6,4.2-6.6.8-8.7.6-.9,1.5-1.5,1.7-2.6.5-3-1.8-5.6-4.7-5.9ZM137.6,44.3h7.8c0,0,.9-.4,1-.5.9-.8.2-2.8-.9-2.8h-11.5v17.2c0,.2.6.8.8.9,1,.5,2.7-.1,2.7-1.3v-5.6h7.3c.4,0,1-1,1-1.5s-.7-1.5-1.1-1.5h-7.2v-5Z"/><path class="st0" d="M104.6,41c2.9.3,5.2,2.9,4.7,5.9s-1.1,1.7-1.7,2.6c3.5,2.1,2.8,7.1-.8,8.7s-2.1.7-2.6.7h-9.3l-.3-.3v-17.4l.3-.3h9.7ZM98.1,48.4h6c0,0,.8-.4.9-.4,1.3-.9,1.2-2.9-.1-3.7s-.9-.4-1-.4h-5.8v4.5ZM98.1,55.8h6.5c1,0,1.9-1.4,1.9-2.3s-.9-2.3-2.1-2.3h-6.3v4.7Z"/><path class="st0" d="M162.1,52.5h-9.5v5.6c0,.2-.6.8-.8.9-1.1.6-2.2,0-2.5-1.1-.4-1.6-.3-7.1-.2-9,.7-11.2,15.7-11.5,16.4.2s.2,5.8,0,7.9-1.1,2.8-2.7,2-.8-.8-.8-.9v-5.6ZM162.1,49.6c.1-3.1-1.4-5.9-4.7-5.9s-5,2.8-4.7,5.9h9.5Z"/><path class="st0" d="M116.9,58.3c0,0-.7.7-.8.8-1,.5-1.9,0-2.4-.8v-11.3c1.8-8.4,14.1-8.7,15.9-.1.4,1.9.6,9.3.1,11.1s-1.5,1.6-2.5,1.1-.8-.8-.8-.9v-5.6h-9.5v5.8ZM126.4,49.6c.5-7.8-10.1-7.8-9.5,0h9.5Z"/><path class="st0" d="M202,51.7h-3.2c-1.7,0-1.7-3.1,0-3.1h6.4l.3.3v7.8c-5.4,4.9-14.8,2.9-16.3-4.7-1.5-7.4,5.3-12.9,12.4-11s4.8,2,3.4,4-2.6,0-3.6-.5c-5.5-2.4-10.4,2.5-8.4,8.1s6.1,4.8,9.1,2.6v-3.3Z"/><path class="st0" d="M177.4,40.5c4.2,0,7.5,3.2,7.8,7.3s.3,7.7,0,10-2.8,2-3.4.3c-.5-3.4,1.2-10.9-1.6-13.2s-6.2-.6-6.8,2.5l-.2,10.9c-1.3,1.9-3.3,1.2-3.5-1.1s-.3-10,.9-12.4,4.1-4.2,6.8-4.2Z"/><path class="st0" d="M137.6,44.3v5h7.2c.4,0,1.1,1,1.1,1.5s-.6,1.5-1,1.5h-7.3v5.6c0,1.1-1.6,1.8-2.7,1.3s-.8-.8-.8-.9v-17.2h11.5c1.1,0,1.8,1.9.9,2.8s-.9.5-1,.5h-7.8Z"/><path class="st1" d="M98.1,55.8v-4.7h6.3c1.1,0,2.1,1.2,2.1,2.3s-.9,2.3-1.9,2.3h-6.5Z"/><path class="st1" d="M98.1,48.4v-4.5h5.8c0,0,.9.3,1,.4,1.3.7,1.4,2.8.1,3.7s-.9.4-.9.4h-6Z"/><path class="st1" d="M162.1,49.6h-9.5c-.2-3.1,1.4-5.9,4.7-5.9s4.9,2.8,4.7,5.9Z"/><path class="st1" d="M126.4,49.6h-9.5c-.6-7.8,10-7.8,9.5,0Z"/></svg>