<?xml version="1.0" encoding="UTF-8"?><svg xmlns="http://www.w3.org/2000/svg" id="Calque_1" version="1.1" viewBox="0 0 300 100"><defs><style> .st0 { fill: none; } .st1 { fill: #c51522; } </style></defs><path class="st0" d="M90.8,43.5h-2.3l-2.7,12.7h2.3c3.4,0,4.6-2.2,5.5-6.3.9-4.2.5-6.4-2.8-6.4Z"/><path class="st0" d="M202.3,58.2c1.4.9,3.4,1.5,5.2,1.5,3.7,0,5.3-2.3,5.3-4.4,0-5-8.4-4.1-8.4-10.9s3.7-6.8,7.6-7h-61.2c1.9,0,3.8.4,5.5,1.1l-1,3.1c-1.2-.7-2.6-1.2-4.5-1.2s-4.9.9-4.9,3.8,8.4,4.2,8.4,10.6-2.4,7.5-7.8,7.8h60.3c-2.3-.1-4.1-.7-5.8-1.4l1.1-3.2ZM176.8,62.4l-.5-21.2h0l-9.8,21.2h-4.7l-2-24.5h3.5l1.3,21h0l9.8-21h4.7l.6,21h0l10.6-21h3.8l-12.8,24.5h-4.6ZM195.8,62.4h-3.5l5.3-24.5h3.5l-5.3,24.5Z"/><path class="st0" d="M219.9,58.2c1.4.9,3.4,1.5,5.2,1.5,3.7,0,5.3-2.3,5.3-4.4,0-5-8.4-4.1-8.4-10.9s3.7-6.8,7.6-7h-16.6c1.9,0,3.8.4,5.5,1.1l-1,3.1c-1.2-.7-2.6-1.2-4.5-1.2s-4.9.9-4.9,3.8,8.4,4.2,8.4,10.6-2.4,7.5-7.8,7.8h15.8c-2.3-.1-4.1-.7-5.8-1.4l1.1-3.2Z"/><path class="st0" d="M140.2,58.2c1.4.9,3.4,1.5,5.2,1.5,3.7,0,5.3-2.3,5.3-4.4,0-5-8.4-4.1-8.4-10.9s3.7-6.8,7.6-7h-75v25.3h69.9c-2.3-.1-4.1-.7-5.8-1.4l1.1-3.2ZM128.9,45.2h-8.3l-3.7,17.2h-9.4l3.7-17.2h-7.3c0,1.4,0,3.1-.5,5.1-2,9.3-7.9,12.2-14.9,12.2h-13.4l5.2-24.5h13.8s8.1,1,9.4,4.6l1-4.8h26l-1.6,7.5Z"/><path class="st0" d="M236,37.5h-5.5c1.9,0,3.8.4,5.5,1.1v-1.1Z"/><path class="st0" d="M235,41.8c-1.2-.7-2.6-1.2-4.5-1.2s-4.9.9-4.9,3.8,8.4,4.2,8.4,10.6-2.4,7.5-7.8,7.8h9.7v-24.2l-1,3.1Z"/><path class="st1" d="M103.5,42.5c-1.3-3.5-9.4-4.6-9.4-4.6h-13.8l-5.2,24.5h13.4c7,0,12.9-2.9,14.9-12.2.4-2,.6-3.7.5-5.1h7.3l-3.7,17.2h9.4l3.7-17.2h8.3l1.6-7.5h-26l-1,4.8ZM93.6,49.9c-.9,4.1-2.1,6.3-5.5,6.3h-2.3l2.7-12.7h2.3c3.3,0,3.7,2.2,2.8,6.4Z"/><path class="st1" d="M154.5,55c0-6.4-8.4-6.5-8.4-10.6s2.5-3.8,4.9-3.8,3.3.5,4.5,1.2l1-3.1c-1.7-.7-3.6-1.1-5.5-1.1h-.9c-3.9.2-7.6,2.7-7.6,7,0,6.8,8.4,5.9,8.4,10.9s-1.6,4.4-5.3,4.4-3.7-.6-5.2-1.5l-1.1,3.2c1.7.7,3.5,1.2,5.8,1.4h1.7c5.4-.3,7.8-4.3,7.8-7.8Z"/><polygon class="st1" points="190.4 37.9 179.8 58.9 179.7 58.9 179.1 37.9 174.4 37.9 164.7 58.9 164.6 58.9 163.3 37.9 159.7 37.9 161.7 62.4 166.4 62.4 176.2 41.2 176.2 41.2 176.8 62.4 181.3 62.4 194.2 37.9 190.4 37.9"/><polygon class="st1" points="192.2 62.4 195.8 62.4 201.1 37.9 197.5 37.9 192.2 62.4"/><path class="st1" d="M216.6,55c0-6.4-8.4-6.5-8.4-10.6s2.5-3.8,4.9-3.8,3.3.5,4.5,1.2l1-3.1c-1.7-.7-3.6-1.1-5.5-1.1h-.9c-3.9.2-7.6,2.7-7.6,7,0,6.8,8.4,5.9,8.4,10.9s-1.6,4.4-5.3,4.4-3.7-.6-5.2-1.5l-1.1,3.2c1.7.7,3.5,1.2,5.8,1.4h1.7c5.4-.3,7.8-4.3,7.8-7.8Z"/><path class="st1" d="M234.1,55c0-6.4-8.4-6.5-8.4-10.6s2.5-3.8,4.9-3.8,3.3.5,4.5,1.2l1-3.1h0c-1.7-.7-3.6-1.1-5.5-1.2h-.9c-3.9.2-7.6,2.7-7.6,7,0,6.8,8.4,5.9,8.4,10.9s-1.6,4.4-5.3,4.4-3.7-.6-5.2-1.5l-1.1,3.2c1.7.7,3.5,1.2,5.8,1.4h1.7c5.4-.3,7.8-4.3,7.8-7.8Z"/></svg>