<?xml version="1.0" encoding="UTF-8"?><svg xmlns="http://www.w3.org/2000/svg" id="Calque_1" version="1.1" viewBox="0 0 300 100"><defs><style> .st0 { fill: #e00025; } .st1 { fill: #142559; } </style></defs><path class="st1" d="M282.5,42v1.1h.5c.3,0,.5,0,.7-.1.1,0,.2-.2.2-.4s0-.4-.2-.4c-.1,0-.4-.1-.7-.1h-.5ZM281.7,41.6h1.4c.5,0,.9,0,1.2.3.3.2.4.4.4.7s0,.5-.2.7c-.1.2-.3.3-.6.3l.8,1.7h-.9l-.7-1.5h-.6v1.5h-.8v-3.7ZM283.1,40.7c-.4,0-.7,0-1.1.2-.3.1-.6.3-.9.6-.3.3-.5.6-.6.9-.1.3-.2.7-.2,1.1,0,.4,0,.7.2,1,.3.7.8,1.2,1.5,1.5.3.1.7.2,1,.2s.8,0,1.1-.2c.3-.1.7-.3.9-.6.3-.3.5-.5.6-.9.1-.3.2-.7.2-1,0-.4,0-.7-.2-1.1-.1-.3-.3-.6-.6-.9-.3-.3-.6-.5-.9-.6-.3-.1-.7-.2-1.1-.2M283.1,40.2c.5,0,.9,0,1.3.2.4.2.8.4,1.1.7.3.3.5.7.7,1,.2.4.2.8.2,1.2s0,.9-.2,1.3c-.2.4-.4.7-.7,1-.3.3-.7.5-1.1.7-.4.2-.8.2-1.3.2-.4,0-.9,0-1.3-.3-.4-.2-.8-.4-1.1-.7-.3-.3-.5-.7-.7-1.1-.2-.4-.2-.8-.2-1.2,0-.4,0-.8.3-1.3.2-.4.4-.8.7-1.1.3-.3.7-.5,1-.7.4-.2.8-.2,1.3-.2M231.9,48.6c-1.1-.8-2.7-1.3-4.9-1.6-.8,0-2.3-.2-4.7-.4-1.6,0-2.7-.3-3.4-.5-.9-.3-1.3-.8-1.3-1.4s.4-1.1,1.3-1.5c.9-.4,2.2-.6,3.9-.6,2.7,0,6.3.5,9.4,1.9,0,0,.2,0,.2-.2v-2.9c0-.1,0-.2,0-.3-2-.9-6.3-1.5-9.2-1.5s-5,.5-6.5,1.4c-1.6,1-2.4,2.3-2.4,3.9s.7,2.8,2.1,3.5c1.2.6,3.2,1,6,1.1,3.2.2,5.1.4,5.8.6,1.3.3,1.9,1,1.9,1.9s-.5,1.5-1.5,2c-1.1.5-2.6.8-4.6.8-2.8,0-6.5-.7-9.5-2.5,0,0-.2,0-.2.1v2.6c0,.1,0,.3,0,.3,0,0,3.2,2.4,9.6,2.4s5.4-.5,7.1-1.5c1.7-1,2.5-2.5,2.5-4.3s-.6-2.6-1.6-3.4M274.1,40.1c-.1,0-.2.1-.2.2v12.6c0,.1,0,.2-.1,0l-10.7-12.6-.2-.2s-.1,0-.3,0h-3.4c-.1,0-.2.1-.2.2v16.8c0,.1.1.2.2.2h2.8c.1,0,.2-.1.2-.2v-13c0-.1,0-.2.2,0l11.3,13.1c.1.1.3.2.4.2h2.8c.1,0,.2-.1.2-.2v-16.8c0-.1-.1-.2-.2-.2h-2.8ZM251.3,53.2c-1.4,1.1-2.9,1.7-5.3,1.7s-3.9-.6-5.3-1.7c-1.4-1.1-2.1-2.6-2.1-4.5s.7-3.3,2.2-4.4c1.5-1.2,2.9-1.8,5.3-1.8s3.5.5,4.9,1.5c1.6,1.2,2.5,2.7,2.5,4.6s-.7,3.3-2.1,4.5M253.2,41.9c-2.1-1.5-4.2-2.3-7.2-2.3s-5.1.8-7.2,2.3c-2.4,1.8-3.6,4.1-3.6,6.9s1.2,5.1,3.5,6.9c2.1,1.5,4.2,2.3,7.3,2.3s5.2-.8,7.2-2.3c2.4-1.7,3.5-4.1,3.5-6.9s-1.2-5.1-3.6-6.9M208.2,53c0,.1,0,.2-.2,0l-10.7-12.6c0-.1-.2-.2-.2-.2,0,0-.1,0-.3,0h-3.3c-.1,0-.2.1-.2.2v16.8c0,.1.1.2.2.2h2.8c.1,0,.2-.1.2-.2v-13c0-.1,0-.2.2,0l11.3,13.1c.1.1.3.2.4.2h2.8c.1,0,.2-.1.2-.2v-16.8c0-.1-.1-.2-.2-.2h-2.8c-.1,0-.2.1-.2.2h0s0,12.6,0,12.6h0ZM186.4,57.2c0,.1.1.3.2.3h2.8c.1,0,.2-.1.2-.2v-16.8c0-.1-.1-.2-.2-.2h-2.8c-.1,0-.2.1-.2.2v16.8ZM179.6,46.3c0,.1-.1.2-.2.2h-10.1c-.1,0-.2-.1-.2-.2v-5.9c0-.1-.1-.2-.2-.2h-2.8c-.1,0-.2.1-.2.2v16.8c0,.1.1.2.2.2h2.8c.1,0,.2-.1.2-.2v-7.5c0-.1.1-.2.2-.2h10.1c.1,0,.2.1.2.2v7.5c0,.1.1.2.2.2h2.8c.1,0,.2-.1.2-.2v-16.8c0-.1-.1-.2-.2-.2h-2.8c-.1,0-.2.1-.2.2v5.9ZM147.4,44.4c1.4-1.2,3.4-1.7,5.7-1.7s5.4.8,7.2,2.7c0,0,.2,0,.3,0l2.5-.9c.1,0,.2-.1.1-.2-2.3-3.1-5.8-4.6-10.2-4.6s-5.6.8-7.6,2.3c-2.4,1.8-3.6,4.1-3.6,6.9s1.2,5.2,3.5,6.9c2,1.5,4.6,2.3,7.7,2.3s4.1-.3,5.7-1c2.6-1,4.3-3.2,4.4-3.2,0,0,0-.2-.1-.2l-2.4-1.3c-.1,0-.2-.1-.3,0-1.4,1.6-4,2.9-7.1,2.8-2.5,0-4.4-.6-5.8-1.7-1.4-1.1-2.1-2.6-2.1-4.5s.7-3.3,2.2-4.4M141.6,40.4c0-.1-.1-.2-.2-.3h-17.4c-.1,0-.2.1-.2.3v2.5c0,.1.1.2.2.2h6.8c.1,0,.2.1.2.3v13.9c0,.1.1.3.2.3h2.8c.1,0,.2-.1.2-.3v-13.9c0-.1.1-.3.2-.3h6.8c.1,0,.2-.1.2-.2v-2.5ZM117.7,50.9c0,1.5-.5,2.4-1.6,3.1-1,.6-2.2,1-4.5,1s-3.5-.4-4.6-1c-1.1-.7-1.7-1.7-1.7-3.1v-10.5c0-.1-.1-.2-.2-.2h-2.8c-.1,0-.2.1-.2.2h0v11.2c0,1.9.9,3.6,2.7,4.7,1.9,1.2,4,1.7,6.8,1.7s4.9-.5,6.7-1.7c1.8-1.1,2.8-2.6,2.7-4.7v-11.2c0-.1-.1-.2-.2-.2h-2.8c-.1,0-.2.1-.2.2v10.5ZM95.7,46.3c0,.1-.1.2-.2.2h-10.1c-.1,0-.2-.1-.2-.2v-5.9c0-.1-.1-.2-.2-.2h-2.8c-.1,0-.2.1-.2.2v16.8c0,.1.1.2.2.2h2.8c.1,0,.2-.1.2-.2v-7.5c0-.1.1-.2.2-.2h10.1c.1,0,.2.1.2.2v7.5c0,.1.1.2.2.2h2.8c.1,0,.2-.1.2-.2v-16.8c0-.1-.1-.2-.2-.2h-2.8c-.1,0-.2.1-.2.2v5.9ZM69.1,64.6h.9v-31.6h-.9v31.6Z"/><path class="st0" d="M35.1,63.7c1.5,1.3,4,1.1,5.6-.4l15.2-15.8c1-1.2,1.4-5.3-3.9-5.3h-12.3c-.9,0-2.4.7-3.1,1.4l-3.1,3.2c-.3.4-.4.5-.4.6.1.1.1,0,.5,0h9.3c3.1,0,3.3.2,3.5.7.1.3,0,1-.7,1.8l-6,6.1c-.5.5-1.2.8-2,.8-.7,0-1.3-.3-1.8-.7l-5.5-5.1c-.5-.5-.8-1.1-.8-1.8,0-.7.2-1.4.7-1.9l6.4-6.9c.9-1,2.6-1.8,3.8-1.8h13.9c1,0,2.4-.6,3.2-1.3l4.1-3.8c.3-.3.4-.5.4-.5,0,0-.1,0-.4,0h-24.4c-.9,0-2.3.7-3.1,1.4l-12.2,13.8c-.6.7-.6,1.8,0,2.4l13.2,13h0ZM14.7,42.3c-.3,0-.5,0-.5,0,0,.1,0,.2.4.5l3.7,3.6c.6.6,1.7.5,2.3-.1l2.9-3.3c.4-.5.4-.6.3-.7,0-.1-.2-.1-.5-.1h-8.8Z"/></svg>