<?xml version="1.0" encoding="UTF-8"?><svg xmlns="http://www.w3.org/2000/svg" id="Calque_1" version="1.1" viewBox="0 0 300 100"><defs><style> .st0 { fill: #d70b35; } </style></defs><path class="st0" d="M105.7,64.2h-5.3v-18.5c-1.6.8-8,6.9-9.2,6.8s-7.3-6-9-6.6v18l-.3.3h-4.9l-.3-.3v-26.5c0-.9,1.3-1.4,2-.9,3.4,2.6,6.6,5.3,10.1,7.8s2.1,1.7,2.6,1.7l12.6-9.6c.5-.3,1.7,0,1.7.6v27.1Z"/><polygon class="st0" points="178.7 35.8 178.7 47.5 193.7 47.5 193.7 36.1 194 35.8 198.9 35.8 198.9 64.2 194 64.2 193.7 63.9 193.7 52.6 178.7 52.6 178.7 64.2 173.7 64.2 173.5 63.9 173.5 36.1 173.7 35.8 178.7 35.8"/><path class="st0" d="M153.8,35.1c4.4-.4,9.3,1,12.5,4.1s1.9,2.3,1.9,2.5,0,.5-.3.7-3.1,2.3-3.3,2.3c-.9-.7-1.6-1.8-2.5-2.5-6.1-4.9-16.2-1.5-17,6.5-1,10.4,10.7,15,18.1,8.3.6-.5,1-1.8,2-1.3s3,2.3,3,2.4c.3.6-.8,1.7-1.2,2.1-2.4,2.6-6.4,4.4-9.9,4.7-21.3,1.7-22.9-28.2-3.2-29.9Z"/><path class="st0" d="M109.6,64.2l14-27.9c.4-.5,1.4-.5,1.8,0l14,27.9h-5.5l-2.8-4.8h-12.8c-.3,0-.5,0-.6.3-.5.7-1.5,2.9-2,3.8s-.2.5-.2.7h-5.8ZM129.5,55.9l-5-9.5-4.8,9.5h9.7Z"/><path class="st0" d="M217.8,64.2h-5.2l-.3-.3v-21.5c-.3,0-.4.1-.6.3-.5.4-2.6,2.8-3,2.8l-3.4-3.4.2-.6c2.9-2.2,5.4-7.3,9.6-6.5s2.7,1.8,2.7,2.8v26.4Z"/><path class="st0" d="M224,62.4c0,1-.8,1.8-1.8,1.8s-1.8-.8-1.8-1.8.8-1.8,1.8-1.8,1.8.8,1.8,1.8ZM220.8,62.4c0,.8.6,1.4,1.4,1.4s1.4-.6,1.4-1.4-.6-1.4-1.4-1.4-1.4.6-1.4,1.4ZM221.9,63.4h-.4v-1.8c.2,0,.4,0,.7,0s.5,0,.6.1c0,0,.2.2.2.4s-.2.3-.4.4h0c.2,0,.3.2.3.5,0,.3,0,.4.1.4h-.4c0,0,0-.2-.1-.4,0-.2-.1-.3-.4-.3h-.2v.7ZM221.9,62.4h.2c.2,0,.4,0,.4-.3s-.1-.3-.4-.3-.2,0-.2,0v.5Z"/></svg>