<?xml version="1.0" encoding="UTF-8"?><svg xmlns="http://www.w3.org/2000/svg" id="Calque_1" version="1.1" viewBox="0 0 300 100"><defs><style> .st0 { fill: #fff; } .st0, .st1, .st2 { fill-rule: evenodd; } .st1 { fill: #cc2229; } </style></defs><g><path class="st0" d="M174.5,16.8h-50.1c-2.1,0-3.9,1.7-3.9,3.9v60.1c0,2.1,1.7,3.9,3.9,3.9h50.1c2.1,0,3.9-1.7,3.9-3.9V20.6c0-2.1-1.7-3.9-3.9-3.9h0Z"/><path d="M174.5,85.1h-50.1c-2.4,0-4.4-2-4.4-4.4V20.6c0-2.4,2-4.4,4.4-4.4h50.1c2.4,0,4.4,2,4.4,4.4v60.1c0,2.4-2,4.4-4.4,4.4ZM124.3,17.3c-1.8,0-3.3,1.5-3.3,3.3v60.1c0,1.8,1.5,3.3,3.3,3.3h50.1c1.8,0,3.3-1.5,3.3-3.3V20.6c0-1.8-1.5-3.3-3.3-3.3h-50.1Z"/></g><path class="st2" d="M174.5,83h-50.1c-1.3,0-2.3-1.1-2.3-2.3v-30.1h54.8v30.1c0,1.3-1.1,2.3-2.3,2.3Z"/><path class="st1" d="M138.1,29.9c0-2.7,2.2-4.9,4.9-4.9s4.9,2.2,4.9,4.9v14.1c0,2.7-2.2,4.9-4.9,4.9s-4.9-2.2-4.9-4.9v-14.1ZM143.1,45.2h0c.7,0,1.2-.5,1.2-1.2h0v-14.1c0-.7-.5-1.2-1.2-1.2h0c-.7,0-1.2.5-1.2,1.2h0v14.1c0,.7.5,1.2,1.2,1.2ZM173.3,33.3l-3.6,3.6,3.6,3.6v8h-3.7v-6.5l-2.4-2.4v8.9h-3.7v-23.2s3.7,0,3.7,0v8.8l2.4-2.4v-6.5h3.7v8h0ZM135.3,40.6v7.9h-3.8v-8.5c0-.7-.5-1.2-1.2-1.2h-1.2v9.7s-3.7,0-3.7,0v-23.2s4.9,0,4.9,0c0,0,4.9,2.2,4.9,4.9v2.9c0,1.4-.6,2.8-1.7,3.7,1.1.9,1.7,2.3,1.7,3.7h0ZM131.6,30.2c0-.7-.5-1.2-1.2-1.2h-1.2v6.2h1.2c.7,0,1.2-.5,1.2-1.2v-3.8h0ZM156.8,40.3v3.7c0,.7-.5,1.2-1.2,1.2h0c-.7,0-1.2-.5-1.2-1.2,0,0,0,0,0,0v-13.8c0-.7.5-1.2,1.2-1.2.7,0,1.2,0,1.2,0v4.8h3.8v-8.4h-4.9c-2.7,0-4.9,2.2-4.9,4.9v13.8c0,2.7,2.2,4.9,4.9,4.9s4.9-2.2,4.9-4.9v-3.8h-3.8Z"/><path class="st0" d="M147.9,53.1v23.2h-3.8v-9.7h-2.4v9.7h-3.8v-23.2h3.8v9.7h2.4v-9.7h3.8ZM173.3,53.1h-3.8v7.8l-1.2,1.2-1.2-1.2v-7.8h-3.8v9.3l2.3,2.3-2.3,2.3v9.3h3.7v-7.7l1.2-1.2,1.2,1.2v7.8h3.8v-9.3l-2.3-2.3,2.3-2.3v-9.3s0,0,0,0ZM135.3,67l-6.1-6.1v-3.2c0-.7.5-1.2,1.2-1.2.7,0,1.2.5,1.2,1.2v2.7s1.2,1.2,1.2,1.2h2.6v-3.8c0-2.7-2.2-4.9-4.9-4.9s-4.9,2.2-4.9,4.9v4.8l6.1,6.1v3.2c0,.7-.6,1.2-1.2,1.2-.6,0-1.1-.5-1.2-1.2v-2.6s-1.2-1.2-1.2-1.2h-2.6v3.8c0,2.7,2.2,4.9,4.9,4.9s4.9-2.2,4.9-4.9v-4.7h0ZM150.6,57.6c0-2.7,2.2-4.9,4.9-4.9s4.9,2.2,4.9,4.9v14.1c0,2.7-2.2,4.9-4.9,4.9s-4.9-2.2-4.9-4.9v-14.1h0ZM154.4,71.7c0,.6.5,1.2,1.2,1.2s1.2-.5,1.2-1.2v-14c0-.7-.5-1.2-1.2-1.2-.7,0-1.2.5-1.2,1.2v14Z"/><path class="st2" d="M180.6,83.2c.8,0,1.4.6,1.4,1.4s-.6,1.4-1.4,1.4-1.4-.6-1.4-1.4c0-.8.6-1.4,1.4-1.4,0,0,0,0,0,0h0ZM180.6,83.5c-.6,0-1.1.5-1.1,1.2s.5,1.2,1.1,1.2c.6,0,1.1-.5,1.1-1.2s-.5-1.2-1.1-1.2h0ZM180.4,85.4h-.2v-1.5c.1,0,.3,0,.4,0s.4,0,.5.1c0,0,.1.2.1.3s-.1.3-.3.4h0c.1,0,.2.2.3.4,0,.2,0,.3.1.4h-.3s0-.2-.1-.4c0-.2-.1-.3-.3-.3h-.2v.7h0ZM180.4,84.6h.2c.2,0,.4,0,.4-.3s0-.3-.4-.3-.1,0-.2,0v.5Z"/></svg>