<?xml version="1.0" encoding="UTF-8"?><svg xmlns="http://www.w3.org/2000/svg" id="Calque_1" version="1.1" viewBox="0 0 300 100"><defs><style> .st0, .st1 { fill: #004288; } .st1 { fill-rule: evenodd; } </style></defs><path class="st0" d="M98.5,51c.2,2.9,3,4,6.4,4s7.5-1.3,8.2-4.4c.3-1.4-.2-2.7-1.6-3.4-1.3-.6-2.9-.8-4.4-1.1-.6-.1-1.7-.2-1.6-.9.2-.7,1.1-.8,1.8-.8,1.3,0,2.1.3,2.3,1.3l4.3-1c-.5-2.3-3-3.2-5.8-3.2s-3.4.2-4.9,1c-1.5.7-2.5,2-2.8,3.3-.7,3.1,2.8,3.8,5.7,4.3.7.1,1.9.3,1.7,1.1-.2.7-1.5.8-2.1.8-1.4,0-2.4-.4-2.6-1.6l-4.8.7Z"/><path class="st0" d="M124.4,49.8c-.3,1.1-1.2,2.2-2.7,2.2-2.2,0-1.8-2.2-1.5-3.6.3-1.2,1-4,3.2-4s1.9,1.4,1.6,2.5l4.7-.2c.4-3.3-1.5-5.3-5.6-5.3s-8.1,3.1-8.9,6.9c-.9,3.7,1.1,6.6,5.9,6.6s6.9-2,7.9-5l-4.5-.2Z"/><polygon class="st0" points="146.8 41.8 141.8 41.8 140.7 46.7 136.9 46.7 138 41.8 133 41.8 130.1 54.8 135.1 54.8 136.2 49.9 139.9 49.9 138.8 54.8 143.8 54.8 146.8 41.8"/><polygon class="st0" points="169.7 41.8 165.7 41.8 161.9 49.1 161.8 49.1 161.2 41.8 157.5 41.8 153.7 49.1 153.6 49.1 153.1 41.8 148.2 41.8 149.5 54.8 153.9 54.8 157.6 47.5 157.7 47.5 158.3 54.8 162.5 54.8 169.7 41.8"/><path class="st1" d="M175.4,54.8h5.2l-2.1-12.9h-5.2l-7.9,12.9h4.1l1.5-2.4h4.1l.3,2.4ZM172.4,49.1l2.2-3.8.5,3.8h-2.7Z"/><polygon class="st0" points="194.3 51.5 188 51.5 190.2 41.8 185.2 41.8 182.2 54.8 193.6 54.8 194.3 51.5"/><path class="st1" d="M195.1,54.8h7.3c1.4,0,3.2,0,4.6-.7,1.3-.7,2.1-1.9,2.3-3,.4-1.5-.6-2.7-2.4-2.9h0c1.7-.3,3-1.5,3.3-2.8.2-1.1-.1-2.1-1.1-2.7-.9-.6-2.1-.7-3.3-.7h-7.8l-2.9,12.9ZM200.2,51.5l.6-2.4h2c.5,0,1,0,1.4.2.4.2.7.6.6,1.1,0,.4-.4.7-.8.9-.5.3-1,.3-1.5.3h-2.2ZM201.2,46.7l.6-2.4h2.1c1,0,2.1.1,1.8,1.2,0,.3-.3.7-.7.9-.5.3-1.1.3-1.6.3h-2.2Z"/><polygon class="st0" points="223.6 51.5 216.3 51.5 216.7 49.1 224.1 49.1 224.7 46.7 217.4 46.7 217.9 45.1 225.1 45.1 225.9 41.8 213.6 41.8 210.7 54.8 222.8 54.8 223.6 51.5"/><path class="st0" d="M228.8,27.6c.2,0,.2.1.2.2,0,0,0,.2-.2.2-10.9-1-26.1-1.8-38.5-1.8-22,0-45,1.8-61.2,4.8-23.2,4.3-37.1,9.1-37.1,18.5s9.8,12.4,27.4,16.7c17.5,4.2,44.3,6.9,70.9,6.9s17.7.3,28.4-.7c.2,0,.3.1.3.2,0,.1-.2.2-.4.2-13.5,1.6-28.7,2.5-44.7,2.5-57.1,0-103.4-11.6-103.4-25.9s46.3-25.9,103.4-25.9,38.9,1.4,54.8,3.9"/></svg>