<?xml version="1.0" encoding="UTF-8"?><svg xmlns="http://www.w3.org/2000/svg" xmlns:xlink="http://www.w3.org/1999/xlink" id="Calque_1" version="1.1" viewBox="0 0 300 100"><defs><style> .st0 { mask: url(#mask); } .st1 { fill: #fff; } .st1, .st2 { fill-rule: evenodd; } .st2 { fill: #404040; } </style><mask id="mask" x="104.3" y="24.6" width="90" height="50.7" maskUnits="userSpaceOnUse"><g id="mask-2"><polygon id="path-1" class="st1" points="104.3 24.6 194.3 24.6 194.3 75.3 104.3 75.3 104.3 24.6"/></g></mask></defs><g id="prodotto"><g id="dettaglio-prodotto-v1"><g id="logo"><g class="st0"><path id="Fill-1" class="st2" d="M166.3,73.7c0,.4-.3.8-1,.8h-3.4c-.7,0-1-.4-1-.8v-2.5c0-.4.3-.8,1-.8h3.4c.7,0,1,.4,1,.8v2.5ZM165.3,69.7h-3.4c-1.3,0-1.9.8-1.9,1.6v2.5c0,.8.6,1.6,1.9,1.6h3.4c1.2,0,1.8-.8,1.8-1.6v-2.5c0-.8-.6-1.6-1.8-1.6ZM175,69.8l-2.6,3.1-2.7-3.1c-.1-.1-.4-.2-.6,0-.2.2-.2.4,0,.6l2.9,3.4v1.2c0,.2.2.4.5.4s.4-.2.4-.4v-1.2l2.9-3.4c.1-.1.1-.4,0-.6-.1-.1-.4,0-.6,0ZM178.6,72.1v-.8c0-.4.3-.8,1-.8h3.4c.7,0,1,.4,1,.8v.8c0,0-5.4,0-5.4,0ZM183,69.7h-3.4c-1.2,0-1.8.8-1.8,1.6v3.7c0,.5.8.5.8,0v-2h5.5v2c0,.5.8.5.8,0v-3.7c0-.8-.6-1.6-1.9-1.6ZM193.4,74.5h-4.8c-.7,0-1-.4-1-.8v-3.7c0-.5-.8-.5-.8,0v3.7c0,.8.6,1.6,1.9,1.6h4.8c.2,0,.4-.2.4-.4s-.2-.4-.4-.4ZM157.7,74.5l-5-1.5c0,0,0-.1,0-.1h3.4c.8,0,1.4-.4,1.5-1,.1-.2.2-.4.1-.7,0-.2,0-.4-.1-.6-.3-.5-.8-.9-1.5-.9h-4.6c-.5,0-.5.8,0,.8h4.6c.4,0,.7.2.8.4,0,.1,0,.3,0,.4s0,.2,0,.3c-.1.3-.4.4-.8.4h-3.5c-1,0-1.2,1.4-.2,1.7l5,1.5c.2.1.4,0,.5-.3,0-.2,0-.4-.3-.4ZM115,70.4h4.8c.2,0,.4-.2.4-.4s-.2-.4-.4-.4h-4.8c-1.2,0-1.8.8-1.8,1.6v2.5c0,.8.6,1.6,1.8,1.6h4.8c.2,0,.4-.2.4-.4s-.2-.4-.4-.4h-4.8c-.7,0-1-.4-1-.8v-.8h4.1c.3,0,.4-.2.4-.4s-.1-.4-.4-.4h-4.1v-.8c0-.4.3-.8,1-.8ZM128.7,74.5h-4.8c-.7,0-1-.4-1-.8v-3.7c0-.5-.8-.5-.8,0v3.7c0,.8.6,1.6,1.8,1.6h4.8c.2,0,.4-.2.4-.4s-.2-.4-.4-.4ZM111,72.6c-.3-.4-.8-.6-1.4-.6h-3.4c-.5,0-.8-.2-.9-.4,0-.1,0-.2,0-.3s0-.3.1-.4c.1-.3.4-.4.8-.4h4.5c.6,0,.6-.8,0-.8h-4.5c-.8,0-1.3.4-1.6.9,0,.2-.1.4-.1.6s0,.5.1.7c.2.5.7.9,1.6,1h3.5c.4,0,.6.1.8.3,0,0,.1.1.1.3s0,.1,0,.3c0,.4-.3.8-1,.8h-4.8c-.2,0-.4.2-.4.4s.2.4.4.4h4.8c1.2,0,1.8-.8,1.8-1.6s0-.4,0-.6c0-.1-.2-.3-.3-.4ZM141.7,70.4h4.7c.3,0,.4-.2.4-.4s-.1-.4-.4-.4h-4.7c-1.3,0-1.9.8-1.9,1.6v2.5c0,.8.6,1.6,1.9,1.6h4.7c.3,0,.4-.2.4-.4s-.1-.4-.4-.4h-4.7c-.7,0-1-.4-1-.8v-.8h4.1c.3,0,.4-.2.4-.4s-.1-.4-.4-.4h-4.1v-.8c0-.4.3-.8,1-.8ZM137.6,74.5h-4.8c-.7,0-1-.4-1-.8v-3.7c0-.5-.8-.5-.8,0v3.7c0,.8.6,1.6,1.9,1.6h4.8c.3,0,.5-.2.5-.4s-.2-.4-.5-.4ZM192.5,56.7l-33-10c-.4-.1-.4-.8.3-.8h22.6c5.5-.3,8.8-3,10.4-6.3.6-1.5.9-3,.8-4.5,0-1.5-.4-3-1.1-4.4-1.7-3.4-5.2-6-10.2-6h-65.8c-5,0-8.6,2.6-10.2,6-.6,1.4-1,2.9-1.1,4.4,0,1.5.3,3.1.8,4.5,1.5,3.4,4.9,6.1,10.4,6.3h23.1c2.4,0,4.3.9,5.3,2.1.4.5.6,1,.8,1.5.2.6.3,1.1.3,1.7,0,2.7-2.2,5.3-6.9,5.3h-32c-1.5,0-2.7,1.2-2.7,2.7s1.2,2.7,2.7,2.7h32c8.2,0,12.2-5.3,12.2-10.7,0-1.1-.2-2.3-.6-3.4-.4-1.1-1-2.2-1.8-3.1-2-2.4-5.1-4.1-9.3-4.1h-22.9c-3.1-.2-5-1.5-5.7-3.2-.3-.7-.4-1.5-.4-2.2,0-.8.3-1.6.6-2.3.8-1.7,2.7-3,5.4-3h65.8c2.7,0,4.6,1.3,5.4,3,.3.7.5,1.5.6,2.3,0,.8-.1,1.5-.5,2.2-.7,1.7-2.6,3-5.7,3.2h-22.9c-6.6,0-8.4,9-1.5,11.1l33.2,10.1c1.4.4,2.9-.4,3.4-1.8.4-1.4-.3-2.9-1.7-3.3Z"/></g></g></g></g></svg>