<?xml version="1.0" encoding="UTF-8"?><svg xmlns="http://www.w3.org/2000/svg" id="Calque_1" version="1.1" viewBox="0 0 300 100"><defs><style> .st0 { fill: #2566af; fill-rule: evenodd; } </style></defs><path class="st0" d="M178.2,45.2v7.6h-10.6v-7.6c0-2.1,1.6-2.9,2.2-2.9h5.6c1.3,0,2.8,1.2,2.8,3ZM225.3,42.1h3.8c1.5,0,2.8,1.2,2.8,2.7v11.1c0,1.5-1.2,2.7-2.7,2.7h-3.8c-1.5,0-2.7-1.2-2.7-2.7v-11c0-1.5,1.2-2.7,2.7-2.8h0ZM160.7,44.8v17.7h6.7v-5.2h10.7v5.2h6.8v-17.6c0-4.4-2.6-6.8-6.1-6.8h-12.6c-3.6,0-5.4,3.1-5.4,6.7h0ZM238.7,56.8v-13c0-3.1-2.5-5.7-5.7-5.7h-11.5c-3.2,0-5.7,2.5-5.7,5.7v13.1c0,3.1,2.6,5.7,5.7,5.7h0s11.5,0,11.5,0c3.1,0,5.7-2.6,5.7-5.7ZM60.9,52.8h.3c0,0,9.1,0,9.1,0,1.5,0,2.4,1.2,2.6,2.4.3,1.6-.6,3.1-2.7,3.1h-13.9v4.2h17.6c.4,0,1.4-.2,1.9-.5,2.3-1.1,3.2-3.4,3.3-5.6,0-.7,0-1.3,0-2,0-5-1.5-6.9-6.8-6.9h-7.8c-2,0-2.4-1.7-2.4-3,0-2.6,2.2-2.2,4.4-2.2h12v-4.2h-17.6c-.5,0-1.3.1-1.7.3-2.3.9-3.3,3.5-3.4,6.6-.1,3.7,1.2,7.7,5.3,7.9h0ZM205,46.3v16.3h6.9v-17.8c0-4.2-2.4-6.8-6.7-6.8h-16.3v24.5h6.7s0-20.4,0-20.4h6.5c2.4,0,2.9,2.2,2.9,4.1ZM146.7,42.1c1.4.2,3.1.5,3.1,3.4v17.1h6.7v-16.8c0-3.6,0-7.4-5.6-7.7h-26.1v24.4h6.8v-20.5h5.7v20.5h6.7v-20.5h2.6ZM112.2,38.1v24.4h7.2v-24.4h-7.2ZM90,38.1h-6.8v24.5h6.8v-5.5h10.1v5.4h6.7v-24.5h-6.7v14.5h-10.1v-14.4ZM242.7,42.9c-1.1,0-2-.9-2-2s.9-2,2-2,2,.9,2,2-.9,2-2,2h0ZM242.1,40.7v-.7h.7c.3,0,.4.2.4.4,0,.3-.1.4-.5.4h-.7ZM242.9,43.2c1.2,0,2.1-1,2.2-2.2s-1-2.5-2.4-2.5h0c-1.3,0-2.4,1.1-2.4,2.4,0,1.4,1.1,2.4,2.5,2.4ZM241.5,42.3h.6v-1.1h.6c.4,0,.5.1.5.5s0,.4,0,.6h.7c-.1-.1-.1-.2-.1-.6s-.1-.6-.4-.7c.3,0,.4-.4.4-.7s-.1-.8-.9-.8h-1.5v2.8h0Z"/></svg>