<?xml version="1.0" encoding="UTF-8"?><svg xmlns="http://www.w3.org/2000/svg" id="Calque_1" version="1.1" viewBox="0 0 300 100"><defs><style> .st0 { fill: #1d1c1a; } .st0, .st1 { fill-rule: evenodd; } .st1 { fill: #ec7323; } </style></defs><path class="st1" d="M150.6,85.5c5-2.3,9.4-7.8,13-18.1h11c-3.5,10-8.2,18.1-17,19.3h-14c-8.8-1.3-13.5-9.3-17-19.3h11c3.6,10.3,8,15.8,13,18.1h0Z"/><path class="st1" d="M150.6,14.6c5,2.3,9.4,7.8,13,18.1h11c-3.5-10-8.2-18.1-17-19.3h-14c-8.8,1.3-13.5,9.3-17,19.3h11c3.6-10.3,8-15.9,13-18.1h0Z"/><path class="st0" d="M193,36l-1.6,7.7h-16c-.3,0-.4.3-.2.5l11.2,11.3c3.3,2.9,2.8,8-2.1,8.1h-22.3s-7-7.7-7-7.7h20.9l-11.9-12.6c-2.6-3.4-.2-7.7,3-7.8l25.9.3h0ZM108,63.7l1.3-7.7h16.1l-11.9-12.6c-2.6-3.4-.2-7.7,3-7.8h30.6l-1.4,8.8,8-8.8h10.7l-15.3,17.1,10,10.6h-12.8l-9.8-10.1,1.7-9.5h-13.2c-.3,0-.4.3-.2.5l11.1,11.2-1.2,7.9-26.7.3h0ZM112.9,74.4l-.5,1.4c-.1.4-.3.6-.3.8-.1.2-.2.3-.4.4-.1.1-.3.2-.5.2-.2,0-.5,0-1,0s-.8,0-1,0c-.2,0-.3-.1-.3-.3,0-.1-.1-.3,0-.4,0-.2,0-.4.2-.8l.9-2.5c.1-.4.3-.7.3-.8.1-.2.2-.3.4-.4.2-.1.4-.2.6-.3.2,0,.5,0,1,0s.7,0,.9,0c.2,0,.3.1.3.3,0,0,0,.2,0,.4,0,.2,0,.5-.2.8v.4h-1.4l.2-.5c0-.2,0-.3,0-.3,0,0-.1,0-.3,0s-.3,0-.3,0c0,0-.1.2-.2.3l-1,2.8c0,.1,0,.2,0,.3,0,0,.1.1.3.1s.3,0,.3,0c0,0,.1-.2.2-.3l.3-.7h-.3l.4-1h1.6ZM120.6,77.4l2-5.7h2.5l-.4,1h-1.2l-.5,1.3h1.2l-.4,1h-1.2l-.5,1.3h1.4l-.4,1h-2.7ZM135.2,72.7h-.3l-.6,1.7h.3c.2,0,.3,0,.4,0,0,0,.1-.1.2-.3l.3-.9c0-.2,0-.3,0-.3,0,0-.2,0-.3,0h0ZM134.6,75.9c0-.2,0-.3,0-.4,0,0-.2-.1-.4-.1h-.2l-.7,2h-1.4l2-5.7h1.4c.9,0,1.4.1,1.6.3.2.2.2.6,0,1.1l-.2.7c-.1.3-.3.6-.5.7-.2.2-.5.3-.9.4.3,0,.5.1.6.3,0,.2,0,.4,0,.7l-.5,1.5h-1.4l.5-1.5h0ZM144.1,77.4l2-5.7h2l-.8,4.5,2.4-4.5h2l-2,5.7h-1.3l1.8-4.8-2.6,4.8h-1.5l.8-4.8-1.6,4.8h-1.2ZM160.7,75h.6l.6-2.5-1.2,2.5h0ZM158.2,77.4l2.9-5.7h2.3l-1.1,5.7h-1.5l.3-1.3h-.8l-.7,1.3h-1.4ZM170.6,77.4l2-5.7h2l-.5,4.5,1.5-4.5h1.3l-2,5.7h-2l.6-4.6-1.6,4.6h-1.3ZM184.3,77.4l.7-1.8v-3.8h1.5l-.4,2.6,1.4-2.6h1.3l-2.6,3.8-.7,1.8h-1.3Z"/></svg>