<?xml version="1.0" encoding="UTF-8"?><svg xmlns="http://www.w3.org/2000/svg" id="Calque_1" version="1.1" viewBox="0 0 300 100"><defs><style> .st0 { fill: #d9272e; } </style></defs><path class="st0" d="M91,56.9c-.2.6-.5,1.2-1.1,1.8s-1.3,1.1-2.1,1.5c-.8.4-1.7.8-2.8,1-1,.2-2.1.4-3.2.4h-5.9c-1.1,0-2.1-.1-3-.4s-1.6-.6-2.2-1c-.6-.4-1-.9-1.3-1.5s-.3-1.2-.1-1.8l.8-3h7.2l-.6,2.2c-.1.4,0,.8.5,1.1s1,.4,1.8.4h1.9c.8,0,1.5-.1,2-.4.6-.3.9-.6,1.1-1.1l.9-3.1c0-.4-.1-.8-.5-1.1-.4-.3-1-.5-1.7-.5h-4c-1.1,0-2.1-.1-2.9-.4-.9-.2-1.6-.6-2.2-1-.6-.4-1-.9-1.2-1.5-.2-.5-.3-1.1-.1-1.8l.7-3c.2-.6.5-1.2,1.1-1.8.6-.6,1.3-1.1,2.1-1.5s1.8-.8,2.8-1c1-.2,2.1-.4,3.2-.4h5.2c1.1,0,2,.1,2.9.4.9.2,1.6.6,2.2,1,.6.4,1,.9,1.3,1.5.3.6.3,1.2.1,1.8-.1.6-.4,1-.8,1.2-.4.3-.9.4-1.6.5-.7,0-1.4,0-2.3-.1-.9-.2-1.8-.3-2.7-.6v-.2c.2-.4,0-.8-.4-1.1-.4-.3-1-.5-1.7-.5h-1.3c-.7,0-1.4.2-2,.5-.6.3-1,.7-1.1,1.1l-.4.9c0,.4.1.8.5,1.1.5.3,1,.5,1.7.5h3.9c1.1,0,2.1.1,3,.4.9.2,1.6.6,2.2,1,.6.4,1,.9,1.3,1.5.3.6.3,1.2.1,1.8l-1.4,5h0ZM112.2,39.2c1.1,0,2,.1,2.9.4.9.2,1.6.6,2.2,1,.6.4,1,.9,1.3,1.5s.3,1.2.1,1.8l-3.6,13.1c-.2.6-.5,1.2-1.1,1.8-.6.6-1.3,1.1-2.1,1.5-.8.4-1.7.8-2.7,1-1,.2-2,.4-3.1.4h-2c-.9,0-1.7,0-2.5-.3s-1.4-.4-1.9-.7l-1.9,6.8c-1,.5-1.9.7-2.7.7-.8,0-1.6-.2-2.1-.6-.6-.4-1-.9-1.3-1.6-.3-.7-.3-1.4,0-2.3l6.7-24c1.1-.2,2.1-.3,3-.3.9,0,1.6,0,2.3,0,.6,0,1.1.2,1.4.3.3.2.4.4.4.7,1.6-.7,3.3-1.1,5.1-1.1h1.8ZM111.3,44.7c0-.4,0-.8-.5-1.1-.4-.3-1-.5-1.7-.5h-1.9c-.8,0-1.4.2-2.1.5s-1,.7-1.1,1.1l-3.2,11.5c-.1.4,0,.8.5,1.1s1,.4,1.8.4h1.9c.8,0,1.5-.1,2-.4.6-.3.9-.6,1.1-1.1l3.2-11.5h0ZM138.7,61.1c-5.1.7-7.4.5-7-.6-.8.3-1.7.5-2.5.7s-1.7.3-2.5.3h-2.4c-1.1,0-2.1-.1-3-.4-.9-.2-1.6-.6-2.2-1-.6-.4-1-.9-1.3-1.5s-.3-1.2-.1-1.8l1.5-5c.2-.6.6-1.2,1.1-1.8.6-.6,1.3-1.1,2.1-1.5.8-.4,1.7-.8,2.7-1,1-.2,2-.4,3.1-.4h4.7c.7,0,1.4-.2,2-.5.6-.3,1-.7,1.1-1.1l.3-.9c.1-.4,0-.8-.5-1.1-.4-.3-1-.5-1.7-.5h-1.9c-.7,0-1.4.2-2,.5-.6.3-1,.7-1.1,1.1l-.2.2h-7l.2-1c.2-.6.5-1.2,1.1-1.8s1.3-1.1,2.1-1.5,1.8-.8,2.8-1c1-.2,2.1-.4,3.2-.4h5.9c1.1,0,2.1.1,3,.4.9.2,1.6.6,2.2,1,.6.4,1,.9,1.2,1.5.3.6.3,1.2,0,1.8l-4.7,17.3h0ZM134.5,50.2c-.7.3-1.5.5-2.4.7-.8.1-1.7.2-2.6.2h-.5c-.7,0-1.4.2-2,.5s-1,.7-1.1,1.1l-.9,3.5c-.1.4,0,.8.5,1.1s1,.4,1.8.4h2.6c.7,0,1.4-.1,2-.4.6-.3.9-.6,1.1-1.1l1.6-5.9h0ZM161.2,39.2c1.1,0,2,.1,2.9.4.9.2,1.6.6,2.2,1,.6.4,1,.9,1.3,1.5.3.6.3,1.2.1,1.8l-4.7,17.3c-1.1.4-2.1.5-3,.5s-1.6-.2-2.1-.5c-.6-.3-.9-.8-1.1-1.5-.2-.7-.1-1.4.1-2.4l3.5-12.6c0-.4,0-.8-.5-1.1-.4-.3-1-.5-1.7-.5h-1.9c-.8,0-1.4.2-2.1.5-.6.3-1,.7-1.1,1.1l-4.5,16.5h-7.3l6-21.6c.9-.1,1.8-.2,2.6-.3.8,0,1.6-.1,2.2,0,.7,0,1.2.1,1.6.3.4.2.6.4.6.8,1.6-.7,3.3-1.1,5.1-1.1h1.8ZM185.3,39.2c1.1,0,2,.1,2.9.4.9.2,1.6.6,2.2,1,.6.4,1,.9,1.3,1.5.3.6.3,1.2.1,1.8l-4.7,17.3c-1.1.4-2.1.5-3,.5s-1.6-.2-2.1-.5c-.6-.3-.9-.8-1.1-1.5-.2-.7-.1-1.4.1-2.4l3.5-12.6c0-.4,0-.8-.5-1.1-.4-.3-1-.5-1.7-.5h-1.9c-.8,0-1.4.2-2.1.5-.6.3-1,.7-1.1,1.1l-4.5,16.5h-7.3l6-21.6c.9-.1,1.8-.2,2.6-.3.8,0,1.6-.1,2.2,0s1.2.1,1.6.3c.4.2.6.4.6.8,1.6-.7,3.3-1.1,5.1-1.1h1.8ZM195.6,39.6c1.1-.3,2.1-.4,3-.4s1.6.2,2.1.5c.5.3.9.8,1.1,1.4.2.7,0,1.5-.3,2.6l-4.8,17.5h-7.2l6-21.6h0ZM219.2,39.2c1.1,0,2,.1,2.9.4.9.2,1.6.6,2.2,1,.6.4,1,.9,1.3,1.5.3.6.3,1.2.1,1.8l-4.7,17.3c-1.1.4-2.1.5-3,.5s-1.6-.2-2.1-.5c-.6-.3-.9-.8-1.1-1.5-.2-.7-.1-1.4.1-2.4l3.5-12.6c0-.4,0-.8-.5-1.1-.4-.3-1-.5-1.7-.5h-1.9c-.8,0-1.4.2-2.1.5-.6.3-1,.7-1.1,1.1l-4.5,16.5h-7.3l6-21.6c.9-.1,1.8-.2,2.6-.3.8,0,1.6-.1,2.2,0,.7,0,1.2.1,1.6.3.4.2.6.4.6.8,1.6-.7,3.3-1.1,5.1-1.1h1.8ZM243.8,40.3c.5-.4,1.4-.7,2.7-.8,1.3,0,2.9,0,4.6,0l-7,25.6c-.2.7-.5,1.3-1.1,1.8-.6.5-1.2,1-2.1,1.4-.8.4-1.7.7-2.8,1-1,.2-2.1.3-3.2.3h-5.9c-.9,0-1.8,0-2.6-.3s-1.5-.4-2.1-.8c-.2-1.9.3-3.1,1.2-3.6,1-.5,2.6-.3,4.9.6.2.1.4.2.7.3.3,0,.6.1.9.1h1.9c.8,0,1.4-.2,2-.5s.9-.7,1.1-1.1l1.1-3.8c-.8.3-1.7.5-2.5.7s-1.7.3-2.6.3h-1.8c-1.1,0-2.1-.1-3-.4-.9-.2-1.6-.6-2.2-1-.6-.4-1-.9-1.3-1.5-.3-.6-.3-1.2-.1-1.8l3.5-13.1c.2-.6.5-1.2,1.1-1.8.6-.6,1.3-1.1,2.1-1.5s1.8-.8,2.8-1c1-.2,2.1-.4,3.2-.4h1.8c.9,0,1.7,0,2.5.3.7.2,1.4.4,2,.8h0ZM242.6,44.7c0-.4,0-.8-.5-1.1-.4-.3-1-.5-1.7-.5h-2c-.7,0-1.4.2-2,.5s-1,.7-1.1,1.1l-3.2,11.5c-.1.4,0,.8.5,1.1s1,.4,1.8.4h1.9c.8,0,1.5-.1,2-.4s.9-.6,1.1-1.1l3.2-11.5h0ZM270.1,61.1c-5.1.7-7.4.5-7-.6-.8.3-1.7.5-2.5.7s-1.7.3-2.5.3h-2.4c-1.1,0-2.1-.1-3-.4-.9-.2-1.6-.6-2.2-1s-1-.9-1.3-1.5-.3-1.2-.1-1.8l1.5-5c.2-.6.6-1.2,1.1-1.8.6-.6,1.3-1.1,2.1-1.5.8-.4,1.7-.8,2.7-1,1-.2,2-.4,3.1-.4h4.7c.7,0,1.4-.2,2-.5s1-.7,1.1-1.1l.3-.9c.1-.4,0-.8-.5-1.1-.4-.3-1-.5-1.8-.5h-1.9c-.7,0-1.4.2-2,.5-.6.3-1,.7-1.1,1.1l-.2.2h-7l.2-1c.2-.6.5-1.2,1.1-1.8.6-.6,1.3-1.1,2.1-1.5s1.8-.8,2.8-1c1-.2,2.1-.4,3.2-.4h5.9c1.1,0,2.1.1,3,.4s1.6.6,2.2,1c.6.4,1,.9,1.2,1.5s.3,1.2,0,1.8l-4.7,17.3h0ZM265.9,50.2c-.7.3-1.5.5-2.4.7s-1.7.2-2.6.2h-.5c-.7,0-1.4.2-2,.5s-1,.7-1.1,1.1l-.9,3.5c-.1.4,0,.8.5,1.1s1,.4,1.8.4h2.6c.7,0,1.4-.1,2-.4.6-.3.9-.6,1.1-1.1l1.6-5.9h0ZM37,65.8c.8-1.5,1.6-3.3,2.4-5.2,1.5-3.4,3.1-7,5.3-9.1.1-.1.3-.2.4-.3-3.5,2.2-8.3,1.6-12.8-3.1l1.5-1.4c3.1,2.4,5.8,2.5,8,.4,1.6-1.6,2.9-4.8,4.4-8.2.8-1.9,1.7-3.9,2.7-5.6-3.6-.7-7.4-.2-10.8,1.4-8.8,4.1-12.5,14.6-8.4,23.4,1.6,3.4,4.2,6.1,7.2,7.8ZM54.4,35.2c-.9,1.6-1.7,3.6-2.5,5.7-1.5,3.4-3.1,7-5.5,9.2-.1.1-.2.2-.3.3,3.7-2.4,8.4-1.4,12.9,2.9l-1.5,1.4c-2.8-2.4-5.8-2.5-8.1-.4-1.6,1.5-2.8,4.8-4.3,8.2-.8,1.8-1.6,3.5-2.5,5.2,3.5.6,7.2.2,10.6-1.4,8.8-4.1,12.6-14.6,8.4-23.4-1.6-3.4-4.1-6-7.2-7.8h0ZM204.9,31.5l-1.2,4.3h-7.2l1.2-4.3h7.2,0Z"/></svg>