<?xml version="1.0" encoding="UTF-8"?><svg xmlns="http://www.w3.org/2000/svg" id="Calque_1" version="1.1" viewBox="0 0 300 100"><defs><style> .st0 { fill: #cc2131; fill-rule: evenodd; } </style></defs><path class="st0" d="M130.9,39.4h-19.5c-6.8,0-7.8,5.5-8,6.1-.2.7-3.1,11.8-4.1,15.3,3.9,0,11.8,0,11.8,0,0,0,2.3-8.7,2.3-8.7.3.3,4.9,6,6.4,7.6,1.2,1.3,2,1.1,6.6,1.1,2.9,0,7.1,0,7.2,0l-6.6-7.8h7.3c.5-2.1,1.2-4.5,1.8-6.9.9-3.7-2.1-6.5-5.1-6.6ZM123.3,49.1h-9.1l1.4-5.1h9l-1.4,5.1ZM98.9,44l1.3-4.6h-25.6c-5.4.3-6.9,3.5-7.7,6.7-.3,1.2-.6,2.3-.8,3.2-.2.8-.4,1.6-.6,2.3h19.7s-1.2,4.6-1.2,4.6h-19.7l-1.2,4.5h24.6c4.9,0,7.4-2.1,8.6-6.5.8-3.2,1.7-6.3,1.7-6.3h-19.2l1.1-4h19.2c0,0,0,0,0,0ZM149,39.4c-1.9,0-5.9-.3-8,6-.9,3.4-4.1,15.4-4.1,15.4h5.7c2.6,0,5.4,0,6.3-1.6.8-1.5,1.8-5.6,1.8-5.6h9.4l-2,7.3h11.9c5.5-20.5,5.3-20,5.7-21.5h-26.8ZM161,49.2h-9s1.4-5.2,1.4-5.2h9l-1.4,5.2h0ZM213.2,60.8l4.3-16.5h-7.1l-4.3,16.4h-11.5s4.3-16.4,4.3-16.4h-7.2l-4.3,16.4h-11.9l5.7-21.5s38.3,0,42.4,0c2.5,0,6.1,2.5,4.8,7.4-1.5,5.8-3.4,14.2-3.4,14.2h-11.8,0ZM230.5,57.2c0-1.7,1.3-3,2.9-3s2.9,1.3,2.9,3-1.3,3-2.9,3c-1.6,0-2.9-1.3-2.9-3ZM233.4,60.7c2,0,3.6-1.5,3.6-3.6s-1.7-3.6-3.6-3.6-3.6,1.5-3.6,3.6c0,2.1,1.7,3.6,3.6,3.6ZM232.6,57.5h.7l1.1,1.8h.6l-1.2-1.8c.6,0,1.1-.4,1.1-1.1s-.5-1.2-1.5-1.2h-1.6v4.2h.7v-1.8h0ZM232.6,56.9v-1.3h.9c.4,0,.9,0,.9.6s-.5.7-1,.7h-.8Z"/></svg>