<?xml version="1.0" encoding="UTF-8"?><svg xmlns="http://www.w3.org/2000/svg" id="Calque_1" version="1.1" viewBox="0 0 300 100"><defs><style> .st0 { fill: #1d1d1b; } .st1 { fill: #0080c8; } </style></defs><path class="st0" d="M169.5,45c-2.3-.3-4.8,1.6-5.5,4.3-.7,2.7.6,5.2,2.9,5.5,2.3.3,4.8-1.6,5.5-4.3.7-2.7-.6-5.2-2.9-5.5"/><polygon class="st0" points="122.4 52.1 124.4 45.1 115 45.1 122.4 52.1"/><path class="st0" d="M207,39.8c-2.3-3.4-6.7-3.2-6.7-3.2h-23.6l-.6,2.2c-2.8-2.3-6.4-2.2-6.4-2.2h-54.1c-4.7,0-7.5,4.1-7.5,4.1-1.7-4.1-6.1-4.1-6.1-4.1h-28.8c-3.8.2-7.6,3.6-8.4,8.3-.8,4.7,1.8,7.8,1.8,7.8h-3.6l-3.1,10.5s56.6.1,58.3,0c1.7,0,2.9-.9,2.9-.9,1.3.9,3.1.8,3.1.8h10.5l3.7-1.6.4,1.2h17.8l1.5-4.5c6.5,8.6,15.3,3,15.3,3,1.8,1.8,4,1.8,4,1.8,0,0,6.9,0,10.6,0,3.7,0,5.5-3.1,5.5-3.1,1.9,2,5.3,3.3,5.3,3.3h4.9l2.9-10.7h-.5c.4-.6,1.2-2.1,1.6-3.3.4-1.2,1.6-5.7-.7-9.1M79.4,59.5h-15.2l1.1-3.6h10.8c1,0,1.8-.2,2.3-1.2.5-1.1.3-2.2-.6-2.7-.2-.1-.6-.2-.8-.2h-4.6c-.5,0-1-.1-1.4-.3-2.4-.9-3.5-4.2-2.4-7.2.9-2.5,2.9-4.1,4.9-4.1h15.3s-1.2,4-1.2,4h-11.4c-.8,0-1.6.1-2,1-.6,1.2-.4,2.3.6,2.8.2.1.7.2,1,.2h4.7c.5,0,1.1,0,1.6.3,2.4.9,3.4,4.1,2.4,7.1-.9,2.5-3,4.2-5,4.1M105.5,48c-.5,1.4-1.4,2.5-2.4,3.2,0,0,1.1-.2.8,1.1-.3,1.3-2.2,7.7-2.2,7.7h-5.9l1.8-6.3s.4-1.1-1.1-1.2c-1,0-3.3,0-4.1,0l-2.2,7.5h-6.1l3.3-11.6h9.7c.9,0,1.8-.3,2.3-1.3.5-1.1.3-2.4-.7-2.7-.2,0-.7,0-.7,0h-9.5s1.2-4,1.2-4h11.7c.6,0,1.2,0,1.8.2,2.4,1,3.4,4.4,2.3,7.4M141.2,59.9l-2.1-8.9-1.8,5.9c-.6,1.8-3.7,2.7-3.7,2.7h-9.3c-1.5,0-2.4-1.2-2.6-2.6-.4.8-1.7,2.7-3.6,2.7-2.4,0-12.1,0-12.1,0l1.3-4.5h10.3l-4.5-3.9c-1.6-1.5-3-3.2-3-5.6s2.4-5.5,5.5-5.8h15.3s-3.8,13.4-3.8,13.6c-.2.9.3,1.6,1.3,1.6h3.7c.5,0,1.2-.4,1.6-1.8l3.9-13.4h4.3l2,9.1,2.4-8.7h4.8l-5.6,19.7h-4ZM204.9,46.1c-1,6.7-5.8,6.6-5.8,6.6,0,0,.4,1.9,3,2.3l-1.3,4.5h-1.7s-4.9-1.4-5.7-6.2l1.4-5.4h3.9s1.5,0,1.6-1.5c.1-1.2-.8-1.6-1.4-1.7h-4.5l-3.5,12.5c-.8,1.9-2.4,2.3-3.6,2.3h-9.9c-1.6,0-2.9-1.4-2.9-3.1s.3-1.5.3-1.5c-2.2,3.1-5.7,4.9-9.1,4.4-4.7-.7-7.4-5.5-6-10.7.3-1.3.9-2.5,1.6-3.6h-3.2l-4.2,14.5h-4.9s4.3-14.9,4.3-14.9h-2.7l1.3-4.8h17.6s.7.3,1.1.3c3.6.5,6,3.4,6.4,7.2l2.1-7.1h4.8s-3.6,12.6-3.6,12.6c0,.2,0,.4,0,.6,0,.7.6,1.3,1.3,1.3h3.8c.6,0,1.1-.4,1.4-1.2l4.1-13.6h9.1c1.2,0,5.7.2,4.9,5.9"/><polygon class="st1" points="240 36.6 215.6 36.6 212.2 49.9 215.6 63.1 240 63.1 240 36.6"/></svg>