<?xml version="1.0" encoding="UTF-8"?>
<svg id="Calque_1" xmlns="http://www.w3.org/2000/svg" version="1.1" viewBox="0 0 400 300">
  <!-- Generator: Adobe Illustrator 29.1.0, SVG Export Plug-In . SVG Version: 2.1.0 Build 142)  -->
  <defs>
    <style>
      .st0 {
        fill: #1e325c;
      }

      .st1 {
        fill: #f2e500;
      }
    </style>
  </defs>
  <g id="Calque_11">
    <polygon class="st0" points="191.2 238.7 191.2 245.5 173.7 245.5 173.7 256.3 187.1 256.3 187.1 263 173.7 263 173.7 280.8 165.2 280.8 165.2 238.7 191.2 238.7"/>
    <path class="st0" d="M207.7,248.4c1.8-1,3.8-1.5,6-1.5v8.9h-2.2c-2.6,0-4.6.6-6,1.9-1.4,1.2-2,3.4-2,6.5v16.6h-8.4v-33.4h8.4v5.2c1.1-1.8,2.5-3.1,4.2-4.2"/>
    <path class="st0" d="M219.2,255c1.3-2.6,3.2-4.6,5.5-6s4.9-2.1,7.7-2.1,4.7.5,6.5,1.5c1.9,1,3.4,2.3,4.5,3.8v-4.8h8.5v33.4h-8.5v-4.9c-1.1,1.6-2.6,2.9-4.5,3.9s-4.1,1.5-6.6,1.5-5.4-.7-7.7-2.2c-2.3-1.4-4.1-3.5-5.5-6.1s-2-5.6-2-9.1.7-6.4,2-9M242.2,258.8c-.8-1.5-1.9-2.6-3.3-3.4s-2.8-1.2-4.4-1.2-3,.4-4.3,1.1c-1.3.8-2.4,1.9-3.2,3.3-.8,1.5-1.2,3.2-1.2,5.2s.4,3.8,1.2,5.3,1.9,2.7,3.2,3.5,2.8,1.2,4.3,1.2,3-.4,4.4-1.2c1.4-.8,2.4-1.9,3.3-3.4.8-1.5,1.2-3.2,1.2-5.3s-.4-3.8-1.2-5.3"/>
    <path class="st0" d="M288.3,250.7c2.5,2.5,3.7,6,3.7,10.5v19.6h-8.4v-18.4c0-2.6-.7-4.7-2-6.1s-3.1-2.1-5.4-2.1-4.2.7-5.5,2.1c-1.4,1.4-2,3.5-2,6.1v18.4h-8.4v-33.4h8.4v4.2c1.1-1.4,2.6-2.6,4.3-3.4,1.8-.8,3.7-1.2,5.8-1.2,4,0,7.2,1.3,9.6,3.8"/>
    <path class="st0" d="M300,255c1.4-2.6,3.4-4.6,5.8-6,2.5-1.4,5.3-2.1,8.6-2.1s7.6,1,10.3,3.1,4.5,5,5.5,8.7h-9.1c-.5-1.4-1.3-2.6-2.4-3.4-1.1-.8-2.6-1.2-4.2-1.2-2.4,0-4.3.9-5.7,2.6-1.4,1.8-2.1,4.2-2.1,7.4s.7,5.6,2.1,7.4,3.3,2.6,5.7,2.6,5.6-1.5,6.7-4.6h9.1c-.9,3.6-2.8,6.5-5.5,8.6s-6.1,3.2-10.2,3.2-6.1-.7-8.6-2.1-4.4-3.4-5.8-6-2.1-5.6-2.1-9.1.7-6.5,2.1-9.1"/>
    <path class="st0" d="M367.1,266.6h-24.4c.2,2.4,1,4.3,2.5,5.7s3.3,2,5.5,2,5.4-1.3,6.7-4h9.1c-1,3.2-2.8,5.9-5.5,7.9s-6.1,3.1-10.1,3.1-6.1-.7-8.6-2.1-4.5-3.4-6-6.1c-1.4-2.6-2.1-5.6-2.1-9s.7-6.5,2.1-9.1,3.4-4.6,5.9-6,5.4-2.1,8.7-2.1,6,.7,8.5,2.1c2.5,1.4,4.5,3.3,5.9,5.8,1.4,2.5,2.1,5.4,2.1,8.6s0,2.3-.2,3.2M358.6,261c0-2.2-.8-3.9-2.4-5.2-1.5-1.3-3.4-2-5.6-2s-3.9.6-5.3,1.9c-1.4,1.3-2.3,3-2.6,5.3h15.9Z"/>
    <path class="st1" d="M312.8,159.9l-11.3-13c13.3-11.6,21.4-27.7,22.7-45.3,2.7-36.6-24.8-68.6-61.4-71.4-17.8-1.3-34.9,4.3-48.4,15.9-13.5,11.6-21.6,27.8-23,45.5l-17.1-1.3c1.7-22.3,11.9-42.7,28.9-57.2,17-14.6,38.6-21.7,60.9-20,46.1,3.4,80.7,43.7,77.3,89.8-1.7,22.2-11.8,42.4-28.6,57"/>
    <path class="st0" d="M363.7,195.1c-1.3-1.3-2.9-2.5-4.9-3.6s-3.9-2-5.8-2.8c-1.9-.7-4.1-1.4-6.6-2.2l-2.4-.7c-6.1-1.8-10.2-3.1-12.2-4.2-.6-.3-1-.8-1.2-1.5s0-1.3.5-1.9c2.1-2.7,5.8-4.1,11.3-4.1s7.7,1.1,9.8,3.4c1.8,1.8,2.8,4.2,2.8,7.2l13,.2c0-6.6-2.1-12.1-6.6-16.5-4.6-4.8-11-7.2-19-7.2s-15.7,2.6-20.5,7.8c-3.7,3.8-5.4,8-5,12.5.2,1.6.6,3.1,1.2,4.5s1.6,2.7,3,3.8,2.6,2.1,3.8,2.8c1.2.8,2.9,1.5,5,2.3s3.8,1.4,5.1,1.8c1.3.4,3.1,1,5.5,1.7l2.3.6c2.6.8,4.8,1.5,6.4,2.2s2.7,1.3,3.4,2c.6.6,1,1.1,1.1,1.4.1.3.2.7.3,1.2,0,.3,0,.7-.2,1.2s-.5,1-1,1.7c-.5.6-1.1,1.2-1.9,1.7s-1.9.9-3.3,1.3c-1.4.3-3,.5-4.7.5-4.8,0-8.2-1.1-10.2-3.2-1.3-1.4-2-3.2-2.3-5.5h-13.1c.3,5.5,2.2,10.2,5.7,14.1,4.5,5.1,11.2,7.7,19.9,7.7s14.9-2.4,19.8-7.3c3.7-3.7,5.5-7.7,5.5-12.1s-.4-4.2-1.2-6.1c-.8-1.9-1.8-3.4-3.1-4.7"/>
    <path class="st0" d="M310.8,197.9h-45.8c.9,4.1,2.8,7.6,5.8,10.2,3,2.7,6.4,4,10.2,4s5.6-.8,8.1-2.3c2.4-1.6,4.4-3.6,5.9-6.3h14.5c-2,6.5-5.6,11.7-10.8,15.8-5.2,4.1-11.1,6.1-17.7,6.1s-15.2-3.1-21.1-9.3c-5.8-6.2-8.8-13.6-8.8-22.4s2.9-16.2,8.8-22.4c5.8-6.2,12.9-9.3,21.1-9.3s12.5,2,17.7,6.1,8.8,9.3,10.8,15.8c1,3.1,1.4,6.4,1.4,9.7s0,2.8-.2,4.2M267.2,184h27.9c-1-1.8-2.2-3.3-3.6-4.6s-3-2.3-4.8-3-3.6-1.1-5.6-1.1c-2.9,0-5.5.8-8,2.3-2.4,1.6-4.4,3.6-5.9,6.3"/>
    <path class="st0" d="M237.2,225.1c-7.9-10-7.9-15-7.9-28.4v-63.3h14v63.3c0,12.2,0,13.5,4.9,19.7l-11,8.6h0Z"/>
    <path class="st0" d="M209.3,203.6c-1.1,1.9-2.4,3.5-4.1,4.8-1.7,1.4-3.7,2.3-5.9,2.8-2.9.6-5.7.5-8.5-.6s-5.2-2.8-7.2-5.1c-2-2.4-3.4-5.1-4.1-8.3s-.7-6.3.1-9.3,2.2-5.6,4.3-7.7c2.1-2.1,4.5-3.6,7.4-4.2,2.2-.5,4.4-.5,6.5,0,2.2.5,4.1,1.4,6,2.7,1.8,1.3,3.4,2.9,4.6,4.9l14.1-3.2c-3.1-6.8-7.8-11.8-14.2-15.2s-13.1-4.3-20-2.7c-8.1,1.8-14.3,6.4-18.7,13.8-4.4,7.4-5.6,15.4-3.6,24s6.5,15.4,13.7,20.1c7.1,4.8,14.8,6.2,22.9,4.4,6.9-1.6,12.6-5.3,16.9-11.1.6-.8,1.1-1.6,1.6-2.4l-11.6-7.7h-.2Z"/>
    <polygon class="st0" points="149.1 161 164.7 161 137.1 245.8 121.6 245.8 134.4 206.4 118.9 206.4 98.9 161 114.5 161 134.4 206.4 149.1 161"/>
    <path class="st0" d="M90.9,217.9c-2.4,3.1-5.2,5.6-8.7,7.4-3.4,1.8-7.1,2.7-10.9,2.7-7,0-13-2.7-18-8.2s-7.5-12.1-7.5-19.8,2.5-14.4,7.5-19.8,11-8.2,18-8.2,8.4,1.1,12.1,3.3l6-12.6c-5.5-3.1-11.5-4.6-18.1-4.6s-13.7,1.9-19.8,5.6c-6.1,3.8-10.9,8.8-14.4,15.3-3.5,6.4-5.3,13.4-5.3,21s1.8,14.6,5.3,21.1,8.3,11.6,14.4,15.3,12.7,5.6,19.8,5.6,18.1-3.3,25.4-9.8c7.3-6.6,11.7-14.8,13.4-24.8h-14.2c-1,4-2.6,7.5-5,10.7"/>
    <rect class="st0" x="174.6" y="133.4" width="38.8" height="14.9"/>
    <path class="st0" d="M171.1,117.9h-45.8c.9,4.2,2.8,7.6,5.8,10.2,3,2.7,6.4,4,10.2,4s5.6-.8,8.1-2.3c2.4-1.6,4.4-3.7,5.9-6.3h14.5c-2,6.5-5.6,11.7-10.8,15.8s-11.1,6.1-17.7,6.1-15.2-3.1-21.1-9.3-8.8-13.7-8.8-22.4,2.9-16.2,8.8-22.4c5.8-6.2,12.9-9.3,21.1-9.3s12.5,2,17.7,6.1,8.8,9.3,10.8,15.8c1,3.1,1.4,6.3,1.4,9.7s0,2.8-.2,4.2M127.5,104h27.9c-1-1.8-2.2-3.3-3.6-4.6-1.4-1.3-3-2.3-4.8-3s-3.6-1.1-5.6-1.1c-2.9,0-5.5.8-8,2.3-2.4,1.6-4.4,3.7-5.9,6.3"/>
    <path class="st0" d="M104.9,105.1c4.5-4.8,6.8-10.5,6.8-17.2s-2.3-12.5-6.8-17.3-10-7.2-16.4-7.2h-40.8v83.7h14.5v-69.7h26.3c2.6,0,4.7,1,6.5,3.1,1.8,2,2.7,4.5,2.7,7.4s-.9,5.4-2.7,7.4c-1.8,2-4,3.1-6.5,3.1h-16.1l21.6,48.7h15.4l-15.5-35.3c4.2-1,7.8-3.2,11-6.6"/>
  </g>
</svg>